<svg xmlns="http://www.w3.org/2000/svg" viewBox="0 0 200 200" width="200" height="200" role="img" aria-label="EPIGE">
  <title>Símbolo EPIGE</title>
  <defs>
    <linearGradient id="epigeMark" x1="8%" y1="0%" x2="92%" y2="100%">
      <stop offset="0" stop-color="#4E74F0"/>
      <stop offset=".45" stop-color="#3273EE"/>
      <stop offset=".72" stop-color="#4391C7"/>
      <stop offset="1" stop-color="#5FBDB0"/>
    </linearGradient>
  </defs>
  <path d="M98.66,200.03 L87.37,198.47 L79.77,195.30 L24.95,162.55 L15.52,153.74 L11.70,147.21 L9.19,135.49 L9.05,70.99 L11.91,55.90 L16.31,48.97 L24.71,41.21 L89.99,3.04 L99.76,0.25 L105.10,0.08 L111.89,1.57 L126.06,9.51 L128.91,13.70 L129.21,16.98 L128.25,20.86 L124.22,24.98 L50.50,67.83 L46.98,70.81 L43.72,79.14 L43.85,126.38 L46.86,134.28 L82.40,156.48 L89.92,160.56 L95.17,161.81 L100.31,161.57 L105.61,159.82 L150.04,132.84 L172.71,119.74 L177.59,118.13 L180.59,117.82 L185.75,119.43 L188.93,122.74 L190.72,127.17 L190.95,136.46 L187.42,148.53 L182.80,154.83 L179.17,157.83 L116.08,194.87 L107.44,198.53 L98.76,200.02 Z" fill="url(#epigeMark)"/>
  <circle cx="156.86" cy="53.64" r="22.97" fill="#74D4C1"/>
  <path d="M94.10,123.65 L89.64,123.14 L83.17,120.07 L69.05,111.55 L66.06,107.49 L65.71,102.52 L68.16,97.93 L71.96,94.96 L102.82,77.47 L107.93,75.40 L115.42,75.81 L133.46,86.09 L137.36,91.16 L137.13,97.97 L132.88,102.42 L102.71,120.32 L94.21,123.63 Z" fill="#3C8589"/>
</svg>
